Coordinates
version=1
nRows=11
nColumns=33
inDegrees=yes

Units are S.I. units (second, meters, Newtons, ...)
Angles are in degrees.

endheader
time	ground_thorax_rot_x	ground_thorax_rot_y	ground_thorax_rot_z	ground_thorax_tx	ground_thorax_ty	ground_thorax_tz	clav_prot_r	clav_elev_r	scapula_abduction_r	scapula_elevation_r	scapula_upward_rot_r	scapula_winging_r	shoulder_elv_r	plane_of_elev_r	axial_rot_r	elbow_flexion_r	pro_sup_r	wrist_flex_r	wrist_dev_r	clav_prot_l	clav_elev_l	scapula_abduction_l	scapula_elevation_l	scapula_upward_rot_l	scapula_winging_l	shoulder_elv_l	plane_of_elev_l	axial_rot_l	elbow_flexion_l	pro_sup_l	wrist_flex_l	wrist_dev_l	
10.2600	-33.356997	-26.624985	32.823868	-116.783934	860.197120	-46.271609	26.396019	-45.000000	40.505474	-45.000000	-45.000000	1690.730047	-2081.390882	20.712019	-140.406884	358.874122	160.831965	16.169662	14.208627	-2.564109	38.399683	-35.946926	-45.000000	-25.303164	3700.376286	-2980.902232	143.389328	180.000000	2157.401736	38.791107	14.367165	-25.018260	
10.2700	-33.341006	-26.639346	32.800051	-116.872561	860.253279	-46.245422	26.372470	-45.000000	40.497868	-45.000000	-45.000000	1690.737455	-2081.412309	20.721479	-140.443655	358.837370	160.806924	16.246061	14.171250	-2.754866	38.417796	-35.807051	-45.000000	-24.990382	3700.388827	-2980.954977	143.437683	180.000000	2157.388677	38.939803	14.221200	-25.012711	
10.2800	-33.310117	-26.667292	32.788566	-116.944270	860.260979	-46.208390	26.298217	-45.000000	40.551094	-45.000000	-45.000000	1690.724264	-2081.451503	20.716982	-140.460478	358.776328	160.805467	16.310698	14.182960	-3.103171	38.452234	-35.623473	-45.000000	-24.641802	3700.359740	-2981.001083	143.516561	180.000000	2157.391430	39.090163	14.081377	-24.989528	
10.2900	-33.281027	-26.691895	32.821482	-116.976520	860.163414	-46.144743	26.262695	-45.000000	40.554416	-45.000000	-45.000000	1690.706905	-2081.481788	20.709780	-140.473015	358.734852	160.833938	16.381868	14.163079	-3.264351	38.457249	-35.497066	-45.000000	-24.543293	3700.323701	-2981.050177	143.549233	180.000000	2157.435756	39.214248	13.921124	-24.984970	
10.3000	-33.246180	-26.723951	32.892214	-116.965752	859.955882	-46.055612	26.242401	-45.000000	40.551212	-45.000000	-45.000000	1690.677505	-2081.515496	20.696844	-140.477033	358.698710	160.888432	16.460155	14.128073	-3.345780	38.438596	-35.388429	-45.000000	-24.575494	3700.276085	-2981.099506	143.559738	180.000000	2157.506005	39.317296	13.740958	-24.980480	
10.3100	-33.208224	-26.761283	32.996435	-116.903920	859.629114	-45.940464	26.228962	-45.000000	40.534592	-45.000000	-45.000000	1690.642554	-2081.545329	20.680491	-140.474527	358.666744	160.968677	16.528434	14.104109	-3.404512	38.423050	-35.294520	-45.000000	-24.727898	3700.204772	-2981.145750	143.562776	180.000000	2157.612312	39.399775	13.560247	-24.979995	
10.3200	-33.163653	-26.810891	33.131000	-116.786110	859.190975	-45.803609	26.229747	-45.000000	40.523385	-45.000000	-45.000000	1690.599241	-2081.582998	20.661566	-140.473940	358.640685	161.055430	16.603945	14.063373	-3.412640	38.382503	-35.204133	-45.000000	-24.934840	3700.130561	-2981.192107	143.551178	180.000000	2157.727721	39.461070	13.363362	-24.979978	
10.3300	-33.118145	-26.866925	33.281154	-116.607886	858.659781	-45.651772	26.230199	-45.000000	40.510844	-45.000000	-45.000000	1690.560241	-2081.617739	20.642446	-140.478387	358.615658	161.141539	16.659729	14.048445	-3.465686	38.362118	-35.110625	-45.000000	-25.159407	3700.037203	-2981.233218	143.547601	180.000000	2157.863415	39.508462	13.185230	-24.981705	
10.3400	-33.067284	-26.936274	33.448870	-116.363008	858.057441	-45.491699	26.243094	-45.000000	40.510137	-45.000000	-45.000000	1690.521318	-2081.664964	20.624119	-140.500873	358.600025	161.203381	16.721270	14.013997	-3.474024	38.313630	-35.018681	-45.000000	-25.386894	3699.949475	-2981.275827	143.533529	180.000000	2157.995295	39.534636	12.995554	-24.984023	
10.3500	-33.017053	-27.010039	33.619707	-116.044727	857.408905	-45.330151	26.258916	-45.000000	40.504053	-45.000000	-45.000000	1690.497985	-2081.705036	20.610147	-140.538857	358.587948	161.240378	16.756589	14.007884	-3.514590	38.290445	-34.931583	-45.000000	-25.625293	3699.848499	-2981.317578	143.526197	180.000000	2158.148912	39.544427	12.838764	-24.990343	
10.3600	-32.959090	-27.099644	33.801369	-115.646195	856.740152	-45.173298	26.280831	-45.000000	40.521549	-45.000000	-45.000000	1690.476554	-2081.760959	20.598200	-140.603187	358.584145	161.234228	16.797713	13.981266	-3.511225	38.233090	-34.845228	-45.000000	-25.848299	3699.756358	-2981.361694	143.509792	180.000000	2158.292575	39.530201	12.675559	-24.995610	
